<svg xmlns="http://www.w3.org/2000/svg" version="1.1" viewBox="0 0 800 400">
    <path d="M-15.132140689561652 186.60126267963366C-7.221827064225959 182.08108232074696 24.921670021345335 155.44430467182116 41.370099491407586 154.3142601161571C57.81852896146984 153.18421556049304 85.908211368849 178.5295158534618 102.35664123945446 178.5295158534618C118.80507111005994 178.5295158534618 142.9126950114271 151.42636918598132 158.85888428144665 154.3142601161571C174.8050735514662 157.2021510463329 198.67951874189586 187.73129930072741 216.2579931681654 199.15730821186023C233.8364675944349 210.58331712299304 268.3476675456068 226.2604469447704 284.4194158976576 235.92860948139148C300.4911642497084 245.59677201801256 316.7422937052748 268.466732345161 331.05619568281384 268.215612044868C345.3700976603529 267.964491744575 372.72435669355605 243.42637406879382 386.66157288007946 234.1348930507274C400.5987890666029 224.843412032661 415.791597294142 211.01381028705555 430.60773987226696 201.84789048725085C445.42388245039194 192.68197068744615 479.18174621992307 170.9241264491649 492.4911627238295 168.6640373378368C505.80057922773574 166.40394822650867 516.2579583781263 179.30080888324696 525.6750006144545 185.7043968349071C535.0920428507826 192.10798478656724 547.5763739054702 210.1348933559032 559.7557501261732 214.40395127826648C571.9351263468765 218.67300920062976 596.9754803507827 216.19766770893054 612.6705450480482 216.19766770893054C628.3656097453139 216.19766770893054 655.414927372267 214.27839006000477 671.863355106642 214.40395127826648C688.3117828410169 214.52951249652818 721.9978802531265 216.71785203510242 730.1593145792982 217.0945335536571 "
          fill="none" stroke-width="4" stroke="url(&quot;#SvgjsLinearGradient1001&quot;)" stroke-linecap="round"
          stroke-dasharray="0 0" stroke-opacity="0.82"
          transform="matrix(0.9900374375390624,0,0,-0.9900374375390624,37.07953047048204,412.64200711847155)"></path>
    <defs>
        <linearGradient id="SvgjsLinearGradient1001" gradientTransform="rotate(0, 0.5, 0.5)">
            <stop stop-color="hsl(0, 0%, 100%)" offset="0"></stop>
            <stop stop-color="hsl(265, 31%, 57%)" offset="1"></stop>
        </linearGradient>
    </defs>
</svg>