<svg xmlns="http://www.w3.org/2000/svg" version="1.1" viewBox="0 0 800 400">
    <path d="M30.04483036449335 157.8475212389123C38.71448616435907 157.54856850046832 63.37816083680373 155.4558967882287 82.06276516368769 156.05380480824823C100.74736949057164 156.65171282826776 116.89087236176711 168.16142759063757 142.15245632579706 161.43496935902948C167.414040289827 154.70851112742145 204.93271959077103 128.99849296946246 233.63226894786737 115.69505541859982C262.33181830496375 102.39161786773725 292.6756115381994 84.00597231923464 314.3497524683752 81.61434405385378C336.02389339855097 79.22271578847293 344.3946031356929 95.6651672655237 363.67711452892206 101.34528582631472C382.95962592215125 107.02540438710574 411.8086503769038 106.27801618316694 430.0448208277502 115.69505541859982C448.28099127859656 125.11209465403282 457.24959886323194 146.18832883575476 473.0941372340002 157.8475212389123C488.93867560476843 169.50671364206988 505.5305843775549 186.09864021677691 525.1120510523596 185.6502098375451C544.6935177271642 185.20177945831335 568.1614081487137 161.58444191355426 590.5829372828283 155.15693896352167C613.0044664169429 148.72943601348913 636.9207465276199 148.13153053660113 659.6412258570471 147.0851921373498C682.3617051864742 146.0388537380985 709.2675482854324 149.17786130645788 726.9058132593908 148.87890856801386C744.5440782333492 148.57995582956988 759.0433152938961 145.8893811835738 765.4708157007971 145.29147570668573 "
          fill="none" stroke-width="4" stroke="url(&quot;#SvgjsLinearGradient1002&quot;)" stroke-linecap="round"
          transform="matrix(1,0,0,1,6.726491928100586,43.16287612915039)"></path>
    <defs>
        <linearGradient id="SvgjsLinearGradient1002">
            <stop stop-color=" hsl(265, 31%, 57%)" offset="0"></stop>
            <stop stop-color="hsl(0, 0%, 100%)" offset="1"></stop>
        </linearGradient>
    </defs>
</svg>