<svg viewBox="0 0 80 80" xmlns="http://www.w3.org/2000/svg">
    <g fill="#1d1d1b">
        <path fill="#ffffff" d="m40 12.9a27.1 27.1 0 1 1 0 54.2 26.6 26.6 0 0 1 -14.12-4 27.14 27.14 0 0 1 7.29-49.38 27.15 27.15 0 0 1 6.83-.82m0-2a29.51 29.51 0 0 0 -7.33.92 29.15 29.15 0 0 0 -7.82 53 28.49 28.49 0 0 0 15.15 4.28 29.11 29.11 0 0 0 15.17-54 28.86 28.86 0 0 0 -15.17-4.2z"/>
        <path fill="#ffffff" d="m39.53 63.44a22.94 22.94 0 0 1 -15-5.88 22.53 22.53 0 0 1 -7.87-16.07c-.92-10.02 5.66-20.14 15.34-23.49a22.82 22.82 0 0 1 20.19 2.1 22.63 22.63 0 0 1 11.02 16.79 22.64 22.64 0 0 1 -5.15 18 22.49 22.49 0 0 1 -16.54 8.48 18.94 18.94 0 0 1 -1.99.07zm.21-46.44a20.35 20.35 0 0 0 -7.59 1.43c-9.44 3.31-15.88 13.21-15 23a22 22 0 0 0 7.7 15.73 22.13 22.13 0 0 0 16.62 5.65 22 22 0 0 0 16.19-8.3 22.12 22.12 0 0 0 5-17.58 22.16 22.16 0 0 0 -10.76-16.45 23.54 23.54 0 0 0 -12.16-3.48z"/>
        <path fill="#ffffff" d="m27.75 57.07.81-1.24c1.59-2.45 3.21-4.89 4.82-7.32s3.23-4.87 4.82-7.32l.08-.11h.13 8.22.69l-.54.43c-2.35 1.9-4.71 3.87-7 5.77-3.53 2.94-7.17 6-10.87 8.84zm10.8-15.49c-1.55 2.42-3.16 4.81-4.75 7.2q-2 3-4 6.07c3.29-2.58 6.53-5.28 9.68-7.91 2.11-1.75 4.29-3.57 6.46-5.33-2.47-.03-4.94-.03-7.39-.03zm0-2.67c-1.93 0-3.59 0-5.17 0h-.68l.53-.43c2.05-1.67 4.08-3.36 6.11-5 3.81-3.18 7.74-6.46 11.73-9.55l1.17-.91-.81 1.24c-1.6 2.46-3.25 4.95-4.84 7.35s-3.22 4.84-4.81 7.28l-.07.11h-3.15zm-4.48-.53h7.36c1.56-2.4 3.15-4.78 4.73-7.17 1.32-2 2.68-4 4-6.08-3.57 2.81-7.11 5.76-10.53 8.61-1.83 1.57-3.63 3.11-5.55 4.64z"/>
    </g>
</svg>